<svg xmlns="http://www.w3.org/2000/svg" viewBox="0 0 24 24" fill="#F5A89E"><path d="M11.35 3.836c-.065.21-.1.433-.1.664 0 .414.336.75.75.75.414 0 .75-.336.75-.75 0-.231-.035-.454-.1-.664a6.75 6.75 0 1 0 4.2 12.336c.38-.283.596-.733.596-1.206A1.5 1.5 0 0 1 18.75 14.25a1.5 1.5 0 0 1 1.5 1.5c0 .473.216.923.596 1.206a6.75 6.75 0 0 0 4.2-12.336c-.065.21-.1.433-.1.664 0 .414-.336.75-.75.75-.414 0-.75-.336-.75-.75 0-.231.035-.454.1-.664A6.75 6.75 0 1 0 11.35 3.836ZM7.5 9.75a1.5 1.5 0 1 1 0-3 1.5 1.5 0 0 1 0 3ZM16.5 9.75a1.5 1.5 0 1 1 0-3 1.5 1.5 0 0 1 0 3ZM12 14.25a3 3 0 1 1 0-6 3 3 0 0 1 0 6Z"/></svg>
